<?xml version="1.0" standalone="no"?>
<!DOCTYPE svg PUBLIC "-//W3C//DTD SVG 20010904//EN"
 "http://www.w3.org/TR/2001/REC-SVG-20010904/DTD/svg10.dtd">
<svg version="1.0" xmlns="http://www.w3.org/2000/svg"
 width="350.000000pt" height="350.000000pt" viewBox="0 0 350.000000 350.000000"
 preserveAspectRatio="xMidYMid meet">
<metadata>
Created by potrace 1.11, written by Peter Selinger 2001-2013
</metadata>
<g transform="translate(0.000000,350.000000) scale(0.100000,-0.100000)"
fill="#000000" stroke="none">
<path d="M1500 2642 c-45 -119 -85 -220 -89 -223 -3 -3 -107 38 -230 92 -216
96 -248 108 -237 91 2 -4 7 -75 10 -157 4 -83 8 -162 10 -177 2 -16 -2 -32 -8
-36 -6 -5 -47 -10 -91 -12 -44 -1 -100 -4 -125 -5 -25 -2 -84 -3 -132 -4 -49
0 -88 -4 -88 -8 1 -5 32 -30 71 -58 39 -27 73 -54 76 -59 4 -5 1 -6 -5 -2 -7
4 -68 27 -138 51 -173 62 -168 56 -93 98 l64 36 -120 3 -120 3 -20 77 c-11 42
-23 79 -26 83 -4 3 -19 -32 -35 -77 l-29 -83 -72 0 -72 0 53 -55 54 -55 -25
-68 c-14 -37 -23 -70 -20 -73 3 -4 18 3 34 14 15 10 43 27 60 36 l33 16 72
-70 c40 -38 68 -70 62 -70 -21 0 -72 -56 -99 -109 -35 -71 -43 -149 -21 -224
9 -30 22 -62 29 -69 21 -21 27 -61 13 -87 -18 -33 -9 -59 58 -179 36 -64 64
-102 81 -110 14 -6 25 -20 26 -29 0 -17 -2 -111 -5 -198 -3 -67 14 -149 34
-169 27 -28 283 -108 354 -110 95 -4 202 22 237 56 16 16 29 36 29 44 0 9 11
14 33 15 37 1 86 5 177 14 58 6 239 13 373 14 34 1 53 7 68 22 18 18 23 19 37
6 26 -23 48 -26 177 -28 82 -2 127 1 143 10 20 11 27 10 42 -4 19 -17 41 -22
125 -26 30 -1 58 -9 70 -19 32 -28 233 -55 264 -36 6 4 11 3 11 -2 0 -27 54
-61 113 -71 121 -20 155 -22 198 -11 24 7 51 13 59 15 66 14 213 57 229 67 28
17 35 64 22 130 -6 29 -20 98 -32 153 -31 146 -32 161 -16 187 8 13 36 64 62
113 l48 90 4 262 5 262 -39 10 c-21 5 -76 17 -123 27 -276 54 -259 49 -220 62
94 30 314 92 317 88 2 -2 -3 -36 -11 -77 -9 -40 -14 -74 -12 -76 2 -2 22 19
45 46 23 27 54 63 70 79 l27 30 67 -32 c75 -37 76 -36 33 58 l-26 60 32 35
c18 20 35 38 38 41 3 3 11 13 18 22 11 14 11 16 -5 13 -10 -2 -42 -6 -71 -9
l-53 -5 -24 52 c-13 29 -30 67 -38 86 -17 39 -19 36 -38 -69 -6 -36 -14 -68
-18 -72 -7 -7 -161 -22 -203 -19 -16 1 -28 0 -28 -2 0 -2 29 -18 65 -36 36
-19 65 -35 63 -36 -6 -6 -303 -135 -310 -135 -5 0 10 23 32 51 22 29 39 53 38
55 -3 2 -301 17 -375 18 -18 0 -33 5 -33 11 0 6 20 60 44 120 53 132 61 159
49 152 -5 -4 -23 -9 -39 -12 -16 -2 -40 -7 -54 -10 -188 -37 -334 -64 -336
-62 -6 5 -97 302 -97 315 -1 25 0 25 -203 -192 -36 -38 -66 -67 -68 -65 -2 2
-49 95 -104 206 l-99 202 -83 -217z m-1105 -557 c28 -5 55 -10 60 -11 60 -17
184 -41 190 -38 3 2 2 0 -2 -4 -14 -14 -83 -33 -94 -26 -21 12 -107 5 -158
-15 -54 -20 -57 -19 -65 20 -3 13 -9 41 -14 61 -9 35 -8 36 12 29 11 -5 44
-12 71 -16z"/>
<path d="M2453 2693 c-33 -32 -95 -91 -137 -130 -43 -40 -75 -73 -71 -73 3 0
62 27 130 59 90 43 125 65 126 78 0 18 4 44 14 96 2 15 3 27 2 27 -2 0 -30
-26 -64 -57z"/>
<path d="M603 2594 c3 -3 -1 -26 -8 -50 l-13 -45 36 -23 c21 -13 73 -45 117
-72 44 -28 94 -59 110 -69 28 -18 27 -17 -10 25 -21 25 -44 50 -50 56 -5 6
-45 50 -89 97 -43 48 -83 87 -89 87 -6 0 -8 -3 -4 -6z"/>
</g>
</svg>
